<?xml version="1.0" encoding="UTF-8" standalone="no"?>
<svg
   id="Layer_1"
   data-name="Layer 1"
   width="70.66"
   height="128.04"
   viewBox="0 0 70.66 128.04"
   version="1.1"
   sodipodi:docname="dpad.svg"
   inkscape:version="1.2.1 (9c6d41e410, 2022-07-14)"
   xmlns:inkscape="http://www.inkscape.org/namespaces/inkscape"
   xmlns:sodipodi="http://sodipodi.sourceforge.net/DTD/sodipodi-0.dtd"
   xmlns="http://www.w3.org/2000/svg"
   xmlns:svg="http://www.w3.org/2000/svg">
  <sodipodi:namedview
     id="namedview28832"
     pagecolor="#505050"
     bordercolor="#ffffff"
     borderopacity="1"
     inkscape:showpageshadow="0"
     inkscape:pageopacity="0"
     inkscape:pagecheckerboard="1"
     inkscape:deskcolor="#505050"
     showgrid="false"
     inkscape:zoom="6.0606064"
     inkscape:cx="35.309998"
     inkscape:cy="64.019997"
     inkscape:window-width="1920"
     inkscape:window-height="974"
     inkscape:window-x="-11"
     inkscape:window-y="-11"
     inkscape:window-maximized="1"
     inkscape:current-layer="Layer_1" />
  <defs
     id="defs28773">
    <style
       id="style28771">
      .cls-1 {
        fill: #ebebeb;
      }

      .cls-2 {
        fill: #edf4f4;
      }

      .cls-3 {
        fill: #dbdbdb;
      }

      .cls-4 {
        fill: #e3e3e3;
      }

      .cls-5 {
        fill: #d6d6d6;
      }

      .cls-6 {
        fill: #f0f0f0;
      }

      .cls-7 {
        fill: #e8e8e8;
      }

      .cls-8 {
        fill: #e6e6e6;
      }

      .cls-9 {
        fill: #e5e5e5;
      }
    </style>
  </defs>
  <g
     id="Up">
    <g
       id="g28779"
       inkscape:label="Inner">
      <path
         class="cls-1"
         d="M40.43,41.55V7.33a.78.78,0,0,1,0-.14L40.51,7l.08-.13c.49-.81,2.1-1.52,4.53-2L46,4.66a7.42,7.42,0,0,1,1-.14l.16,0L48,4.38l1-.1,1-.09,2.37-.07,1,0c7.32,0,13.06,1.42,13.06,3.23V41.55L53.49,54.6Z"
         id="path28775"
         inkscape:label="Main" />
      <path
         class="cls-2"
         d="m 53.49,4.6 c 8.09,0 12.57,1.62 12.57,2.73 v 34 L 53.49,53.9 40.93,41.34 v -34 0 -0.14 0 c 0.16,-0.25 0.91,-1.11 4.19,-1.76 h 0.06 l 0.83,-0.17 h 0.09 c 0.33,-0.06 0.59,-0.09 0.79,-0.11 h 0.19 L 48,5.04 v 0 l 1,-0.11 v 0 l 1,-0.08 h 1.25 c 0.33,0 0.65,0 1,0 h 0.13 1 m 0,-1 h -1.05 -0.12 -1 -0.16 c -0.33,0 -0.66,0 -1,0 H 50 l -1,0.09 v 0 l -1,0.11 v 0 L 47,4 H 46.94 C 46.62,4 46.3,4.08 46,4.13 h -0.07 c -0.3,0 -0.6,0.11 -0.88,0.18 v 0 C 42.63,4.78 40.8,5.52 40.19,6.53 A 0.56,0.56 0 0 0 40.08,6.7 v 0 c 0,0.06 0,0.12 0,0.18 0,0.06 0,0 0,0 v 0.15 a 1.65,1.65 0 0 0 0,0.21 V 41.76 L 53.49,55.31 67.06,41.76 v -34.43 0 c 0,-2.5 -6.8,-3.73 -13.57,-3.73 z"
         id="path28777"
         style="display:inline"
         inkscape:label="Outline" />
    </g>
    <g
       id="g30663"
       inkscape:label="Outer">
      <path
         class="cls-3"
         d="M45,4.35h0l.88-.19H46c.3-.05.62-.1.94-.13H47l1-.13h0l1-.11h0l1-.08h.14l1,0h.17l1,0h.12l1.06,0c6.77,0,13.56,1.23,13.56,3.73l2.75-2.77C68.91,3.19,67.1,1.85,63.67,1A44.3,44.3,0,0,0,53.49,0,44.12,44.12,0,0,0,43.31,1c-2.93.71-4.71,1.79-5.72,3l2.57,2.57C40.78,5.56,42.6,4.82,45,4.35Z"
         id="path28781" />
      <path
         class="cls-4"
         d="M67.06,7.33h0V41.76l3.6-3.63V7.33a4.94,4.94,0,0,0-.85-2.77L67.06,7.33Z"
         id="path28783" />
      <path
         class="cls-5"
         d="M39.93,7.33a1.65,1.65,0,0,1,0-.21A.83.83,0,0,1,40,7a.08.08,0,0,1,0,0c0-.06,0-.12,0-.18v0a.62.62,0,0,1,.1-.16L37.59,4a4.94,4.94,0,0,0-1.26,3.33V38.14l3.6,3.62Z"
         id="path28785" />
    </g>
  </g>
  <g
     id="Down">
    <g
       id="g28792"
       inkscape:label="Inner">
      <path
         class="cls-1"
         d="M17.17,51.21c-7.14,0-12.75-1.32-13-3.08a.78.78,0,0,1,0-.14V13.77L17.17.71,30.23,13.77V48s0,.09,0,.15C29.91,49.89,24.3,51.21,17.17,51.21Z"
         id="path28788"
         inkscape:label="Main" />
      <path
         class="cls-2"
         d="M17.17,1.41,29.73,14V48a.13.13,0,0,1,0,.06c-.19,1.12-4.66,2.66-12.55,2.66S4.81,49.17,4.61,48.06a.56.56,0,0,0,0-.07V14L17.17,1.41m0-1.41L3.6,13.56V48h0a2,2,0,0,0,0,.23c.41,2.33,7,3.49,13.54,3.49s13.14-1.16,13.55-3.49a2,2,0,0,0,0-.23V13.56L17.17,0Z"
         id="path28790"
         inkscape:label="Outline" />
    </g>
    <g
       id="g30668"
       inkscape:label="Outer">
      <path
         class="cls-6"
         d="M30.73,48l2.75,2.77A5,5,0,0,0,34.33,48V17.18l-3.6-3.62Z"
         id="path28794" />
      <path
         class="cls-7"
         d="M30.71,48.22c-.41,2.33-7,3.49-13.54,3.49S4,50.55,3.62,48.22a2,2,0,0,1,0-.23L.82,50.76c.93,1.36,2.74,2.7,6.17,3.52a44.55,44.55,0,0,0,10.18,1,44.84,44.84,0,0,0,10.17-1c3.43-.82,5.24-2.16,6.14-3.52L30.73,48A2,2,0,0,1,30.71,48.22Z"
         id="path28796" />
      <path
         class="cls-4"
         d="M3.6,48h0V13.56L0,17.18V48.83l.09.24a5.22,5.22,0,0,0,.73,1.69L3.6,48Z"
         id="path28798" />
    </g>
  </g>
  <g
     id="Right">
    <g
       id="g28807"
       inkscape:label="Inner">
      <path
         class="cls-1"
         d="M13.77,87.56.71,74.5,13.77,61.44H48c1.81,0,3.23,5.74,3.23,13.06S49.79,87.56,48,87.56Z"
         id="path28803"
         inkscape:label="Main" />
      <path
         class="cls-2"
         d="M48,61.94c1.14,0,2.73,4.78,2.73,12.56S49.12,87.06,48,87.06H14L1.41,74.5,14,61.94H48m0-1H13.56L0,74.5,13.56,88.06H48c5,0,5-27.12,0-27.12Z"
         id="path28805"
         inkscape:label="Outline" />
    </g>
    <g
       id="g30673"
       inkscape:label="Outer">
      <path
         class="cls-8"
         d="M48,60.94l2.76-2.77A5,5,0,0,0,48,57.32H17.17L13.56,61Z"
         id="path28809" />
      <path
         class="cls-7"
         d="M48,88.06H13.56l3.6,3.62H49.48l.34-.35a4.88,4.88,0,0,0,.92-.5L48,88.06Z"
         id="path28811" />
      <path
         class="cls-6"
         d="M50.74,58.17,48,60.94c5,0,5,27.12,0,27.12l2.76,2.77c1.37-.93,2.71-2.74,3.55-6.14a45.59,45.59,0,0,0,1-10.19,45.46,45.46,0,0,0-1-10.19C53.45,60.91,52.11,59.1,50.74,58.17Z"
         id="path28813" />
    </g>
  </g>
  <g
     id="left"
     inkscape:label="Left">
    <g
       id="g28820"
       inkscape:label="Inner">
      <path
         class="cls-1"
         d="M7.34,123.92c-1.82,0-3.25-5.74-3.25-13.06S5.52,97.8,7.34,97.8H41.55l13.07,13.06L41.55,123.92Z"
         id="path28816"
         inkscape:label="Main" />
      <path
         class="cls-2"
         d="M41.35,98.3l12.56,12.56L41.35,123.42h-34c-1.15,0-2.75-4.78-2.75-12.56S6.19,98.3,7.34,98.3h34m.41-1H7.34c-5,0-5,27.12,0,27.12H41.76l13.56-13.57L41.76,97.3Z"
         id="path28818"
         inkscape:label="Outline" />
    </g>
    <g
       id="g30678"
       inkscape:label="Outer">
      <path
         class="cls-3"
         d="M41.76,97.3l-3.6-3.62H7.34a5.06,5.06,0,0,0-2.78.84L7.34,97.3Z"
         id="path28822" />
      <path
         class="cls-5"
         d="M7.34,97.3h0L4.56,94.53c-1.37.93-2.68,2.73-3.53,6.14a50.92,50.92,0,0,0,0,20.38c.85,3.4,2.16,5.21,3.53,6.14l2.78-2.77C2.35,124.42,2.35,97.3,7.34,97.3Z"
         id="path28824" />
      <path
         class="cls-9"
         d="M7.34,124.42l-2.78,2.77a5.08,5.08,0,0,0,2.78.85H38.16l3.6-3.62Z"
         id="path28826" />
    </g>
  </g>
</svg>
