<?xml version="1.0" encoding="UTF-8" standalone="no"?>
<svg
   id="Layer_1"
   data-name="Layer 1"
   width="83.379997"
   height="83.379997"
   viewBox="0 0 83.379995 83.38"
   version="1.1"
   sodipodi:docname="stickpressed.svg"
   inkscape:version="1.2.1 (9c6d41e410, 2022-07-14)"
   xmlns:inkscape="http://www.inkscape.org/namespaces/inkscape"
   xmlns:sodipodi="http://sodipodi.sourceforge.net/DTD/sodipodi-0.dtd"
   xmlns="http://www.w3.org/2000/svg"
   xmlns:svg="http://www.w3.org/2000/svg">
  <sodipodi:namedview
     id="namedview1962"
     pagecolor="#505050"
     bordercolor="#ffffff"
     borderopacity="1"
     inkscape:showpageshadow="0"
     inkscape:pageopacity="0"
     inkscape:pagecheckerboard="1"
     inkscape:deskcolor="#505050"
     showgrid="false"
     inkscape:zoom="3.1234704"
     inkscape:cx="136.0666"
     inkscape:cy="78.118237"
     inkscape:window-width="1920"
     inkscape:window-height="974"
     inkscape:window-x="-11"
     inkscape:window-y="-11"
     inkscape:window-maximized="1"
     inkscape:current-layer="LS_pressed" />
  <defs
     id="defs1920">
    <style
       id="style1918">
      .cls-1 {
        fill: #1a1a1a;
      }

      .cls-2 {
        fill: #404040;
      }

      .cls-3 {
        fill: #262626;
      }

      .cls-4 {
        opacity: 0.06;
      }

      .cls-5 {
        fill: #fff;
      }

      .cls-6 {
        fill: #212121;
      }

      .cls-7 {
        fill: #e5e5e5;
      }

      .cls-8 {
        fill: #bfbfbf;
      }

      .cls-9 {
        fill: #d9d9d9;
      }

      .cls-10 {
        fill: #dedede;
      }
    </style>
  </defs>
  <g
     id="LS_pressed"
     data-name="LS pressed"
     inkscape:label="Stick_Pressed">
    <path
       class="cls-7"
       d="M 83.39,41.7 A 41.7,41.7 0 1 1 41.69,0 41.69,41.69 0 0 1 83.39,41.7 Z"
       id="path1942"
       style="display:inline"
       inkscape:label="Ridge_BG" />
    <path
       class="cls-8"
       d="m 41.69,0 h -1.26 -0.75 l 0.94,20 h 1.07 z m -4,0.19 H 37.52 37.38 C 36.82,0.25 36.26,0.32 35.71,0.4 l 2.84,19.79 c 0.34,0 0.69,-0.09 1,-0.12 z m -4,0.57 H 33.6 33.18 c -0.48,0.1 -1,0.2 -1.44,0.32 l 4.73,19.43 c 0.34,-0.08 0.68,-0.16 1,-0.22 L 33.73,0.76 Z m -3.88,1 L 29.01,2 V 2 H 29 V 2 H 28.95 V 2 H 28.9 l -0.93,0.31 6.6,18.88 c 0.32,-0.11 0.65,-0.22 1,-0.31 L 29.85,1.71 Z M 26.07,3 C 25.45,3.25 24.84,3.52 24.24,3.8 L 32.62,22 c 0.31,-0.15 0.63,-0.29 1,-0.42 z m -3.63,1.7 c -0.59,0.31 -1.17,0.63 -1.75,1 l 10.09,17.24 c 0.3,-0.18 0.6,-0.35 0.91,-0.51 z M 19,6.72 C 18.44,7.08 17.89,7.45 17.35,7.85 L 29,24.07 c 0.29,-0.2 0.57,-0.4 0.87,-0.59 z m -3.25,2.33 c -0.53,0.42 -1,0.85 -1.54,1.29 l 13.19,15 c 0.26,-0.23 0.53,-0.45 0.8,-0.67 z m -3,2.64 c -0.29,0.27 -0.56,0.55 -0.84,0.84 v 0 0 0 0 0 0 0 l -0.43,0.45 14.42,13.84 c 0.23,-0.25 0.48,-0.5 0.73,-0.74 L 12.74,11.69 Z M 10,14.6 v 0 0 0 0 H 9.87 v 0 0 c -0.38,0.45 -0.75,0.9 -1.1,1.36 v 0 l 15.8,12.26 q 0.32,-0.4 0.66,-0.81 z M 7.55,17.76 7.39,18 v 0 0 0 c -0.32,0.46 -0.62,0.92 -0.92,1.39 l 16.9,10.7 c 0.18,-0.29 0.38,-0.59 0.58,-0.87 z M 5.41,21.14 5,22 v 0 l -0.49,0.93 17.85,9 c 0.16,-0.31 0.32,-0.62 0.5,-0.92 z m -1.8,3.57 c -0.07,0.15 -0.14,0.3 -0.2,0.45 v 0 0.06 0 a 0.14,0.14 0 0 0 0,0.06 v 0 C 3.23,25.7 3.05,26.12 2.89,26.55 l 18.63,7.26 c 0.13,-0.32 0.26,-0.64 0.4,-1 z M 2.15,28.43 C 2.06,28.7 1.98,28.97 1.89,29.24 v 0 0 0 0 0 0 0 0 0 0 0 0 0 0 0 0 0 0 0 0 0 0 0 0 0 0 0 0 0 0 0 c 0,0 0,0 0,0 v 0 0 0 0 0 C 1.83,29.42 1.78,29.6 1.73,29.79 l 19.25,5.43 q 0.13,-0.5 0.3,-1 l -19,-6.35 z M 1.07,32.28 C 1,32.81 0.83,33.34 0.73,33.87 c 0,0.13 0,0.25 -0.07,0.37 l 19.69,3.55 c 0.06,-0.34 0.13,-0.68 0.2,-1 z M 0.36,36.22 C 0.3,36.64 0.25,37.07 0.21,37.5 v 0 0 0 0 0 0 0 c 0,0.2 0,0.39 -0.05,0.59 l 19.93,1.66 c 0,-0.35 0.07,-0.7 0.11,-1 z M 0,40.2 v 1 0 0 0 0.06 0 0.24 0 0 0 0 0 0 0 0 0 0 0 0 0 c 0,0.13 0,0.27 0,0.4 L 20,42 v -0.3 c 0,-0.26 0,-0.53 0,-0.79 z M 20,43 0.07,44.2 c 0,0.57 0.08,1.14 0.14,1.7 v 0 0 0 0 0 0 0 a 1.1,1.1 0 0 0 0,0.18 l 19.88,-2.13 c 0,-0.34 -0.06,-0.69 -0.08,-1 z m 0.22,2.08 -19.72,3.09 v 0 0 0 0 0 0 c 0.08,0.53 0.17,1.05 0.28,1.57 v 0 0 0 0 0 0 0 0.16 l 19.59,-4 c -0.06,-0.34 -0.13,-0.68 -0.18,-1 z m 0.42,2 -19.37,5 c 0.16,0.65 0.34,1.29 0.54,1.93 L 21,48.12 c -0.1,-0.33 -0.2,-0.67 -0.28,-1 z m 0.61,2 -18.77,6.83 c 0.23,0.63 0.47,1.25 0.73,1.87 l 18.45,-7.72 c -0.13,-0.32 -0.26,-0.64 -0.37,-1 z m 0.79,1.9 L 4,59.6 4.1,59.82 v 0 0 0 c 0.18,0.37 0.36,0.73 0.55,1.1 v 0 0 0 0 0 0 0 c 0,0.11 0.11,0.22 0.17,0.33 l 17.62,-9.46 c -0.16,-0.31 -0.32,-0.62 -0.47,-0.93 z m 1,1.83 -17.12,10.31 0.29,0.48 v 0 0 0 0 0 c 0.24,0.38 0.49,0.77 0.74,1.14 L 23.58,53.64 C 23.39,53.35 23.2,53.06 23.03,52.76 Z m 1.15,1.73 -16.05,11.91 0.22,0.3 v 0 0 0 0 0 0 0 0 0 0 0 0 0 0 0 0 0 0 0 0 0 0 0 0 0 0 0 c 0.23,0.3 0.46,0.6 0.7,0.89 L 24.56,55 c -0.22,-0.27 -0.43,-0.55 -0.64,-0.83 z m 1.32,1.62 -14.84,13.39 c 0.44,0.49 0.9,1 1.37,1.45 L 26.26,56.94 C 26.02,56.7 25.77,56.44 25.54,56.18 Z M 27,57.67 13.48,72.39 c 0.25,0.23 0.5,0.46 0.76,0.68 h 0.06 v 0 0 L 14.96,73.64 27.8,58.36 C 27.53,58.14 27.27,57.9 27.01,57.67 Z M 28.62,59 16.55,75 c 0.3,0.23 0.61,0.46 0.93,0.68 l 0.69,0.48 11.29,-16.5 c -0.28,-0.2 -0.57,-0.4 -0.84,-0.61 z m 1.72,1.18 -10.49,17 0.1,0.07 v 0 0 0 c 0.5,0.3 1,0.6 1.52,0.88 v 0 l 9.67,-17.51 c -0.31,-0.17 -0.61,-0.34 -0.9,-0.52 z m 1.82,1 -8.81,18 0.33,0.17 h 0.16 v 0 0 q 0.63,0.3 1.26,0.57 l 8,-18.3 C 32.78,61.49 32.46,61.34 32.16,61.19 Z M 34.06,62 27,80.73 c 0.62,0.24 1.25,0.45 1.89,0.66 l 6.12,-19 -1,-0.34 z m 2,0.63 -5.24,19.37 0.24,0.06 h 0.21 q 0.74,0.2 1.5,0.36 L 37,62.88 c -0.34,-0.07 -0.68,-0.15 -1,-0.24 z m 2,0.44 -3.33,19.74 c 0.5,0.08 1,0.16 1.51,0.22 l 0.47,0.06 2.36,-19.86 c -0.34,0 -0.69,-0.09 -1,-0.15 z m 2.07,0.25 -1.41,20 h 0.41 0.09 1 0.54 l 0.46,-20 c -0.35,0 -0.7,0 -1,0 z m 3.16,0 -1.05,0.05 0.48,20 h 0.56 0.13 l 1.18,-0.06 h 0.13 l -1.43,-20 z m 2.08,-0.25 c -0.34,0.06 -0.69,0.11 -1,0.15 l 2.37,19.86 c 0.61,-0.08 1.22,-0.16 1.83,-0.26 h 0.15 L 45.35,63.08 Z m 2,-0.44 c -0.33,0.09 -0.67,0.17 -1,0.24 l 4.27,19.54 h 0.22 0.21 l 0.76,-0.18 h 0.36 l 0.39,-0.1 -5.2,-19.32 z m 2,-0.63 -1,0.34 6.13,19 0.92,-0.31 h 0.19 L 56.39,80.74 49.33,62 Z m 1.91,-0.83 -1,0.44 7.95,18.39 c 0.35,-0.15 0.7,-0.3 1.05,-0.47 h 0.15 l 0.62,-0.29 -8.81,-18 z m 1.81,-1 c -0.29,0.18 -0.59,0.36 -0.89,0.52 l 9.66,17.51 0.18,-0.1 v 0 0 h 0.1 v 0 0 l 1.37,-0.8 -10.5,-17 z M 54.77,59 c -0.27,0.21 -0.56,0.42 -0.84,0.61 l 11.3,16.5 0.75,-0.53 v 0 0 0 0 0 0 h 0.14 v 0 0 l 0.6,-0.45 z m 1.61,-1.34 c -0.26,0.24 -0.52,0.47 -0.79,0.69 L 68.41,73.7 h 0.34 v 0 0 0 0 l 1,-0.86 v 0 0 0 0 0 z m 1.47,-1.49 c -0.23,0.26 -0.48,0.52 -0.72,0.77 L 71.36,71 v 0 0 0 l 0.93,-1 v 0 0 0 0 0 0 0 c 0.1,-0.12 0.21,-0.24 0.32,-0.35 z m 1.32,-1.61 c -0.21,0.27 -0.42,0.55 -0.64,0.82 L 74,68 v 0 0 0 0 0 0 0 0 0 0 0 c 0.21,-0.26 0.42,-0.52 0.62,-0.79 v 0 0 0 0 0 0 0 0 c 0.11,-0.16 0.23,-0.31 0.35,-0.47 z m 1.15,-1.74 c -0.17,0.3 -0.36,0.59 -0.55,0.88 l 16.63,11.1 0.14,-0.21 v 0 0 c 0.31,-0.47 0.61,-0.95 0.9,-1.43 v 0 0 0 z m 1,-1.83 c -0.14,0.32 -0.3,0.63 -0.46,0.93 l 17.62,9.45 0.27,-0.51 0.42,-0.83 v 0 0 0 0 0 0 0 c 0.06,-0.11 0.11,-0.22 0.16,-0.33 L 61.3,51 Z m 0.8,-1.9 c -0.12,0.32 -0.24,0.64 -0.37,1 L 80.2,57.8 c 0.1,-0.23 0.19,-0.46 0.28,-0.69 v 0 0 0 0 0 0 0 c 0.13,-0.36 0.27,-0.71 0.4,-1.06 L 62.1,49.09 Z m 0.61,-2 c -0.09,0.33 -0.18,0.67 -0.28,1 L 81.54,54 c 0,-0.14 0.08,-0.27 0.13,-0.41 v 0 0 0 0 0 0 0 0 0 0 0 0 0 0 0 0 0 0 0 0 c 0.12,-0.4 0.23,-0.81 0.33,-1.21 l -19.37,-5 z m 0.41,-2 q -0.07,0.51 -0.18,1 l 19.59,4 c 0.12,-0.57 0.22,-1.15 0.32,-1.72 a 1.87,1.87 0 0 1 0,-0.25 L 63.12,45.09 Z M 63.35,43 c 0,0.35 -0.05,0.7 -0.09,1 l 19.89,2.13 c 0,-0.24 0,-0.47 0.07,-0.71 v 0 0 0 0 0 0 c 0,-0.38 0.06,-0.76 0.09,-1.14 v -0.06 z m 20,-2.82 -20,0.71 c 0,0.27 0,0.53 0,0.8 V 42 l 20,0.23 v -0.43 0 0 0 0 0 0 0 -0.09 0 0 0 -0.17 0 0 0 -0.34 0 0 0 c 0,-0.15 0,-0.29 0,-0.44 v 0 -0.09 0 -0.15 0 a 2.44,2.44 0 0 1 0,-0.27 z m -0.33,-4 -19.82,2.63 c 0,0.34 0.08,0.69 0.11,1 l 19.93,-1.66 c 0,-0.16 0,-0.31 0,-0.47 v 0 0 0 0 0 0 0 0 0 c 0,-0.46 -0.1,-0.92 -0.15,-1.37 z m -0.72,-3.93 -19.48,4.5 0.21,1 19.68,-3.56 c -0.06,-0.31 -0.12,-0.63 -0.19,-0.95 v 0 0 0 0 0 0 0 0 0 0 0 0 0 0 0 0 0 0 0 0 0 0 0 l -0.07,-0.32 v 0 -0.06 0 0 0 l -0.06,-0.24 z m -1.08,-3.85 -19,6.36 q 0.16,0.49 0.3,1 l 19.25,-5.44 v 0 0 0 0 0 0 0 c -0.14,-0.49 -0.29,-1 -0.45,-1.46 v 0 0 0 c 0,-0.1 -0.07,-0.19 -0.1,-0.29 z m -1.46,-3.73 -18.25,8.18 c 0.14,0.32 0.28,0.64 0.4,1 L 80.54,26.58 C 80.3,25.96 80.04,25.34 79.77,24.73 Z M 78,21.12 60.58,31 c 0.17,0.3 0.33,0.61 0.49,0.92 l 17.84,-9 c -0.26,-0.52 -0.54,-1 -0.82,-1.55 v 0 0 0 0 0 0 0 0 0 0 0 0 0 0 0 z m -2.14,-3.37 -16.4,11.5 c 0.2,0.28 0.4,0.57 0.58,0.86 l 16.9,-10.7 -0.13,-0.2 v 0 0 0 c -0.21,-0.33 -0.43,-0.66 -0.65,-1 v 0 0 0 L 75.9,17.83 Z m -2.45,-3.16 -15.2,13 q 0.34,0.39 0.66,0.81 L 74.67,16.13 74.52,16 v 0 0 0 0 0 0 0 0 0 0 0 0 0 0 0 0 0 0 0 0 0 0 0 0 0 0 0 0 0 0 0 0 0 0 0 0 0 0 0 0 0 0 0 0 0 0 0 0 0 0 0 0 0 0 0 0 0 0 0 0 0 0 0 0 0 0 0 0 0 0 0 0 0 0 0 0 0 0 0 L 74.4,15.85 Z m -2.75,-2.91 -13.91,14.4 c 0.25,0.24 0.5,0.49 0.73,0.74 L 72,13.1 v 0 c -0.46,-0.49 -0.93,-1 -1.41,-1.42 z M 67.62,9 55.17,24.7 c 0.28,0.21 0.55,0.44 0.81,0.67 l 13.18,-15 -0.23,-0.21 v 0 0 0 C 68.52,9.81 68.1,9.46 67.67,9.16 Z M 64.38,6.71 53.48,23.48 c 0.29,0.19 0.58,0.38 0.86,0.59 L 66,7.84 65.54,7.51 v 0 L 65,7.12 v 0 0 0 0 0 L 64.45,6.76 Z m -3.45,-2 -9.24,17.72 0.91,0.5 L 62.68,5.66 62.24,5.41 v 0 h -0.05 v 0 0 0 C 61.79,5.18 61.38,4.97 60.98,4.75 Z M 57.29,3 49.81,21.56 50.76,21.97 59.13,3.81 h -0.31 c -0.5,-0.23 -1,-0.44 -1.53,-0.65 z m -3.77,-1.3 -5.66,19.18 1,0.32 L 55.42,2.31 54.09,1.87 H 53.94 L 53.52,1.74 Z m -3.89,-0.94 -3.78,19.63 1,0.22 4.74,-19.43 H 51.36 L 50.54,0.94 H 50.3 Z m -4,-0.57 -1.84,19.91 c 0.34,0 0.69,0.07 1,0.12 L 47.66,0.42 47.16,0.36 H 47 L 46.1,0.26 H 46 45.73 Z M 41.63,0 v 20 h 1.05 L 43.62,0 c -0.4,0 -0.81,0 -1.21,0 z"
       id="path1944"
       style="display:inline"
       inkscape:label="Ridge" />
    <path
       class="cls-9"
       d="M 41.69,2 A 39.69,39.69 0 1 1 2,41.7 39.75,39.75 0 0 1 41.69,2 m 0,-2 A 41.69,41.69 0 1 0 83.39,41.7 41.69,41.69 0 0 0 41.69,0 Z"
       id="path1948"
       style="display:inline"
       inkscape:label="Outline" />
    <path
       d="m 77.71,41.7 a 36,36 0 1 1 -36,-36 36,36 0 0 1 36,36 z"
       id="path1950"
       style="display:inline;opacity:0.06"
       inkscape:label="Dark_Overlay" />
    <path
       class="cls-10"
       d="M 41.69,69.83 A 28.13,28.13 0 1 1 69.81,41.7 28.16,28.16 0 0 1 41.69,69.83 Z"
       id="path1954"
       style="display:inline"
       inkscape:label="Inner_Main" />
    <path
       class="cls-7"
       d="M 41.69,16.58 A 25.13,25.13 0 1 1 16.56,41.7 25.15,25.15 0 0 1 41.69,16.58 m 0,-6 A 31.13,31.13 0 1 0 72.81,41.7 31.12,31.12 0 0 0 41.69,10.58 Z"
       id="path1956"
       style="display:inline"
       inkscape:label="Inner_Outline" />
  </g>
</svg>
